Coordinates
version=1
nRows=22
nColumns=24
inDegrees=yes

Units are S.I. units (second, meters, Newtons, ...)
Angles are in degrees.

endheader
time	pelvis_tilt	pelvis_list	pelvis_rotation	pelvis_tx	pelvis_ty	pelvis_tz	hip_flexion_r	hip_adduction_r	hip_rotation_r	knee_angle_r	ankle_angle_r	subtalar_angle_r	mtp_angle_r	hip_flexion_l	hip_adduction_l	hip_rotation_l	knee_angle_l	ankle_angle_l	subtalar_angle_l	mtp_angle_l	lumbar_extension	lumbar_bending	lumbar_rotation
      5.45000000	     -8.69069565	     -7.43098338	      2.21470632	     -0.88354302	     -0.01668902	      2.05020973	      4.54504118	     13.29172535	    -11.85620750	     -8.61106463	      5.31668228	     -3.52699097	      7.81865991	     36.46405787	     -5.40297929	      4.01569748	    -50.12115871	     12.84910956	      0.55360991	    -51.38108434	      4.75496839	      7.15208251	     -0.46174993
      5.46000000	     -8.77585126	     -7.13116243	      2.12246976	     -0.87215693	     -0.01721848	      2.05097017	      3.41456922	     13.11353555	    -11.86924635	     -7.83056603	      5.57092794	     -3.09180998	      7.84025411	     37.03715910	     -5.06255372	      3.60683641	    -47.31634380	     13.15882260	      1.17068368	    -51.55460984	      4.71889347	      6.81695947	     -0.11426715
      5.47000000	     -8.92537906	     -6.86240370	      2.03842068	     -0.86074821	     -0.01802638	      2.05162651	      2.41142751	     12.94895974	    -11.94256177	     -7.15101429	      5.87207299	     -2.64399646	      7.87114316	     37.57713129	     -4.77658153	      3.11510548	    -44.32147447	     13.38516882	      1.96965588	    -51.77922760	      4.75410492	      6.51601728	      0.19087618
      5.48000000	     -8.97083611	     -6.60082953	      2.06202672	     -0.84931894	     -0.01889470	      2.05207421	      1.34393948	     12.77447906	    -12.17589816	     -6.54366293	      6.20568361	     -2.12312943	      7.88759123	     37.89179671	     -4.46622170	      2.61770126	    -41.13146168	     13.54970502	      2.95343189	    -52.34770399	      4.67983244	      6.21782488	      0.39607489
      5.49000000	     -9.22541345	     -6.38429439	      1.94645416	     -0.83787546	     -0.02010790	      2.05256576	      0.59587574	     12.62980230	    -12.31614804	     -6.12659915	      6.53410723	     -1.67565516	      7.90257126	     38.30029414	     -4.29622573	      1.89469479	    -37.79573486	     13.58908400	      4.07278263	    -52.54871913	      4.81455234	      5.98604430	      0.69768042
      5.50000000	     -9.24395539	     -6.13451471	      1.98530837	     -0.82631704	     -0.02117501	      2.05275481	     -0.36596996	     12.43024533	    -12.64085318	     -5.78660018	      6.90975001	     -1.10597424	      7.81708772	     38.30413232	     -4.00814038	      1.22236905	    -34.29292884	     13.55393139	      5.21957431	    -52.87616713	      4.71086176	      5.71723106	      0.84000321
      5.51000000	     -9.41158716	     -5.93347612	      1.88994846	     -0.81469034	     -0.02247671	      2.05296992	     -1.06282684	     12.25614563	    -12.87541770	     -5.66354142	      7.26120117	     -0.60451308	      7.75543611	     38.34962540	     -3.83054601	      0.40856688	    -30.75410397	     13.45813056	      6.37422564	    -52.95528092	      4.75785586	      5.52061051	      1.08719799
      5.52000000	     -9.40255405	     -5.67721876	      1.84414660	     -0.80292615	     -0.02361933	      2.05299230	     -1.88108819	     11.98995145	    -13.23116470	     -5.69306003	      7.67069308	      0.04664077	      7.64036592	     38.06655989	     -3.54265146	     -0.34902073	    -27.16863108	     13.27529326	      7.33702284	    -52.96117856	      4.62361013	      5.27738144	      1.27145674
      5.53000000	     -9.31660051	     -5.40073957	      1.82700113	     -0.79097091	     -0.02472372	      2.05285263	     -2.71676265	     11.66649676	    -13.65638316	     -5.87063055	      8.09802771	      0.79286103	      7.45071989	     37.61332927	     -3.17771931	     -0.96813311	    -23.66341242	     13.05365192	      8.08127829	    -52.84517359	      4.42401659	      5.01862590	      1.43700853
      5.54000000	     -9.16484437	     -5.09878740	      1.80785420	     -0.77894539	     -0.02576688	      2.05259697	     -3.51905886	     11.27120872	    -14.13525279	     -6.26245669	      8.54046382	      1.60571259	      7.16554830	     37.04752730	     -2.76702105	     -1.55017669	    -20.33544027	     12.76956027	      8.61243997	    -52.56860223	      4.14864800	      4.74451948	      1.49223346
      5.55000000	     -9.06134774	     -4.74989444	      1.68129757	     -0.76669109	     -0.02681097	      2.05233195	     -4.19149464	     10.76833682	    -14.51091348	     -6.84898211	      8.96692282	      2.47991159	      6.95535431	     36.49085504	     -2.34798557	     -2.11508919	    -17.27116443	     12.53674322	      8.96792154	    -52.28815386	      3.93991965	      4.43735580	      1.66169728
      5.56000000	     -9.05564192	     -4.39908132	      1.42587848	     -0.75430040	     -0.02789223	      2.05206258	     -4.65966299	     10.20006123	    -14.71571153	     -7.64589263	      9.30962186	      3.31621626	      6.91323632	     36.03446077	     -1.97766340	     -2.67645759	    -14.55894553	     12.40823333	      9.18435974	    -52.15302135	      3.83917306	      4.15139282	      1.93177820
      5.57000000	     -8.92966623	     -3.99480051	      1.23085799	     -0.74158881	     -0.02882645	      2.05169290	     -5.22901423	      9.53453942	    -14.97286949	     -8.52663645	      9.60593428	      4.27969453	      6.90599027	     35.44701572	     -1.52968875	     -3.19487126	    -12.25444531	     12.42980962	      9.43428464	    -52.00975554	      3.65251874	      3.79213646	      2.09698823
      5.58000000	     -8.81117672	     -3.61668224	      1.02131288	     -0.72861063	     -0.02975097	      2.05127199	     -5.74326404	      8.85483176	    -15.13936106	     -9.51156140	      9.76690322	      5.21643329	      6.94699065	     34.90165328	     -1.10827070	     -3.66722383	    -10.45662518	     12.57514600	      9.65732003	    -51.83181863	      3.50812627	      3.45615855	      2.23750171
      5.59000000	     -8.71758479	     -3.28062839	      0.78631158	     -0.71532348	     -0.03070162	      2.05085934	     -6.18644830	      8.18282136	    -15.20707545	    -10.59597972	      9.79715794	      6.12499687	      7.06921264	     34.43263368	     -0.73888612	     -4.10539693	     -9.23170663	     12.81298159	      9.82161602	    -51.59033748	      3.43506773	      3.15941369	      2.37133641
      5.60000000	     -8.58381437	     -2.97190839	      0.56207324	     -0.70171883	     -0.03164271	      2.05044893	     -6.62890747	      7.50673763	    -15.23259169	    -11.77862777	      9.68192245	      7.03265553	      7.32965561	     33.99475029	     -0.39281281	     -4.45561646	     -8.64427134	     13.07995533	      9.85413303	    -51.20365888	      3.36173960	      2.87322796	      2.44666499
      5.61000000	     -8.51515111	     -2.68186446	      0.33147738	     -0.68771525	     -0.03265640	      2.05007188	     -6.97121819	      6.83096186	    -15.15038867	    -12.99970029	      9.18090298	      7.76394868	      8.97888125	     33.68019461	     -0.05908687	     -4.58703274	     -8.64322390	     12.94478530	      9.53021003	    -49.29775344	      3.41737758	      2.58973100	      2.53100777
      5.62000000	     -8.51034360	     -2.41395512	      0.11990979	     -0.67337314	     -0.03378915	      2.04969501	     -7.16284205	      6.14465828	    -15.05708552	    -14.42534404	      8.80010323	      8.62960447	      9.24516678	     33.51865396	      0.24592598	     -4.61293086	     -9.23184929	     12.87602313	      8.99265419	    -49.24430775	      3.59456476	      2.31403647	      2.56437711
      5.63000000	     -8.48382857	     -2.12952808	      0.00133383	     -0.65883165	     -0.03491319	      2.04915138	     -7.30989386	      5.41862656	    -15.02428580	    -15.95966864	      8.20319457	      9.48285893	      9.86727811	     33.38259310	      0.62737186	     -4.32704471	    -10.21583334	     12.22915671	      7.92728609	    -49.19853089	      3.77638003	      2.00682066	      2.51648730
      5.64000000	     -8.52937228	     -1.79561602	     -0.04378904	     -0.64414502	     -0.03602451	      2.04844943	     -7.26625436	      4.60985848	    -15.08444449	    -17.67501329	      7.34707472	     10.29552972	     10.78452035	     33.33747230	      1.09467799	     -3.86392718	    -11.39853221	     10.96376194	      6.49788372	    -49.24410224	      4.05965787	      1.64279891	      2.38734407
      5.65000000	     -8.60645081	     -1.28976062	     -0.01011399	     -0.62934447	     -0.03691434	      2.04772287	     -7.12212714	      3.61347396	    -15.24990875	    -19.37332134	      5.64549355	     10.79402210	     15.26048367	     33.34354016	      1.73212247	     -3.51931891	    -12.67362781	      9.08205155	      5.01832539	    -48.45445335	      4.38622806	      1.06348189	      2.24396100
      5.66000000	     -8.86503914	     -0.75328832	      0.19491955	     -0.61466341	     -0.03780249	      2.04677683	     -6.62607749	      2.57157815	    -15.57038804	    -21.31885725	      3.80511149	     11.24468953	     18.05933504	     33.66483667	      2.45785519	     -3.12283373	    -14.12118918	      7.29180729	      3.71514533	    -48.29935125	      4.88797566	      0.42715364	      1.92779387
